<svg xmlns="http://www.w3.org/2000/svg" version="1.0" viewBox="0 0 365 405">
  <path fill="#79d9d9" d="M176.8 5.1c-14.6 2.3-29 13.9-41.2 33.3a222.6 222.6 0 0 0-20.1 45.2c-.2.8-3.1.6-9.7-.7-5.1-1-15.6-2.3-23.4-3C46 77 19.8 86.3 10.3 105.8a56.3 56.3 0 0 0-1.8 32.5c4.1 17 16.2 37.8 33.3 57.5l5.5 6.3-2 2.2a201.5 201.5 0 0 0-27.6 38.6c-21.3 40.5-11.4 69.8 26.9 79.3a168 168 0 0 0 56.3-.1 52.2 52.2 0 0 1 14.1-1.4c.4.4 1.9 4.4 3.5 8.8 16.3 46.5 44.3 74.3 70 69.6 13.5-2.5 26-11.8 37.4-27.7a199 199 0 0 0 21.2-42.3l3.2-9.3 3.6.5c16.5 2.5 24.3 3.6 28.4 4l4.7.5v-18.6l-6.7-.7a282 282 0 0 1-22.6-3.1c-1.5-.3-2.5-.9-2.2-1.4 1-1.5 6.3-30.7 7.6-41.1l1.2-10.6 10.6-8.1c5.8-4.5 15.1-12.1 20.6-17 5.5-5 10.4-8.8 10.8-8.5.5.3 4.5 5.3 8.8 11.2a123.7 123.7 0 0 1 18.5 33.7l1.5 5.3 11.5 6.7a56 56 0 0 0 12.1 6c1.1-1-1.6-13.2-4.8-22a162.4 162.4 0 0 0-29.1-46.9 55 55 0 0 1-5.8-7.6 97 97 0 0 1 7-9.1c24.7-29.7 36.5-58.9 32-78.8-3.5-15.2-15.4-26.2-34-31.5-8.6-2.5-25.4-3.9-36.5-3.2a280 280 0 0 0-35.6 5c-1.1.4-2-1-3.3-5.2-7.1-22.7-22.4-49.6-34.3-60.4C201.8 7.6 189.5 3 176.8 5.1zm18.9 28.3c12.8 6.4 26.3 25.6 35.2 49.9 1.6 4.3 1.8 5.9.8 6.2l-14.8 4.9c-7.5 2.5-17.9 6.3-23 8.6-5.2 2.2-10.1 4-10.9 4-.9 0-6.7-2.1-13-4.6A300.7 300.7 0 0 0 134.3 90c-2.2 0-1.3-3.7 3.5-14.9a97 97 0 0 1 20.7-32.7A40 40 0 0 1 172 32.1a29.7 29.7 0 0 1 23.7 1.3zM310 101a35.7 35.7 0 0 1 22.7 16.8c1.4 2.9 1.8 6 1.8 14.2 0 9.6-.3 11.1-3.3 18.1-5.2 12-13.4 25-23.1 36.1l-2.4 2.7-4.6-4a770 770 0 0 0-32.3-26.8c-3.5-2.5-4.8-4.1-4.8-5.9 0-4-2.9-22.9-5.5-35.7a192 192 0 0 1-2.5-13.2c0-4.2 40.4-6 54-2.3zm-210.2-.6a86 86 0 0 1 9.7 1.8c.2.2-.7 5.3-2 11.3-1.3 6.1-3.3 17.7-4.5 26-2 14.4-2.2 15.1-5.2 17.5l-14.6 11.8a314.5 314.5 0 0 0-17.5 14.9l-5.8 5.5-3.2-3.7c-1.8-2-6-7.6-9.4-12.4-14.4-20-20.2-39-15.8-52.2 3.4-10.2 14-18.1 28-20.9 6.6-1.3 30.4-1.1 40.3.4zm45.2 11.5c13.9 4.8 16.5 6 14.5 6.7-1.3.5-32.2 18.5-35.7 20.8l-2.8 1.8v-2.6c0-2.4 3.6-21.3 5.5-28.9.5-1.7 1.4-2.7 2.5-2.7 1 0 8.2 2.2 16 4.9zm94.7 1.1c2 8.5 5.3 27.3 5 27.7-.2.1-6.2-3.2-13.3-7.5-7.1-4.2-15.9-9.3-19.6-11.2a30.4 30.4 0 0 1-6.8-4.1c0-.4.8-.9 1.8-1.2l14.7-5.1a84 84 0 0 1 15-4.4c1.5.2 2.3 1.6 3.2 5.8zm-47.5 18.6c18.2 9.1 51.9 29.4 54.8 32.9 1.6 1.9 2.6 43.7 1.5 62.5l-.7 12.5-10.1 6.7a440.7 440.7 0 0 1-42.6 24.7l-12.4 6.3-10.4-5.2a545.6 545.6 0 0 1-44.2-25.4c-9.9-6.4-10-6.5-10.7-11.3-1.1-6.2-1.1-60.4-.1-66.4.8-4.5 1-4.7 11.5-11.6a419.3 419.3 0 0 1 53.9-30.3l9.5 4.6zm-93.6 93.2A162 162 0 0 1 73 202.3c0-1.1 7.2-8 17.5-16.9l8-6.8.3 22.8c.1 12.6 0 23.1-.2 23.4zm174.7-40.7c9.7 8.1 19.7 17.2 19.7 18 0 .9-25.1 22.9-26 22.9-.3 0-.5-10.4-.5-23 0-12.7.1-23 .3-23 .2 0 3.1 2.3 6.5 5.1zM67.1 221.8c5.4 4.9 16.6 14.1 30.6 25.2 3.1 2.4 3.2 2.9 5.2 17 1.2 8 3.2 19.7 4.5 26 1.4 7 1.9 11.7 1.4 12.1-2.2 1.4-20.2 3.2-31.8 3.2-19.3-.1-30.2-3.3-38.8-11.6-14.9-14.4-9.1-40.2 16.2-72.4 2.3-2.9 4.6-5.2 5.2-5.2.6-.1 4 2.5 7.5 5.7zm67.9 49.7c4.7 2.9 12.5 7.3 17.4 10l8.8 4.8-2.8 1.2c-6.2 2.6-27.5 9.5-29.3 9.5-1.6 0-2.2-1.4-3.6-7.1-2.5-11-4.5-22.1-4.5-24.8 0-2.3 0-2.3 2.8-.5l11.2 6.9zm109.5-4.8c-1.6 9.3-5.8 28.9-6.4 30-.5.9-4.5-.1-15.1-3.6-20.5-6.9-20-6.7-15.7-8.7 5.6-2.6 19-10.2 27.2-15.5 5-3.1 9.4-5.8 9.8-5.8.4-.1.5 1.6.2 3.6zm-48.8 35.2a502 502 0 0 0 36 12.6c2.7.9-8.5 26-16.7 37.9a50 50 0 0 1-20.3 18.7c-18.9 8.9-37.4-2.7-52.6-32.8-3.7-7.4-9.1-20.8-9.1-22.6 0-.8 2.3-1.9 5.3-2.6 6-1.6 29.7-10.2 37.1-13.6 2.8-1.3 5.8-2.4 6.7-2.4.8-.1 7 2.1 13.6 4.8z"/>
  <path fill="#79d9d9" d="M164 152.2 138.5 167l-8 4.7-.2 30.4-.3 30.4 25.1 14.4a528.7 528.7 0 0 0 26.8 14.8 52 52 0 0 0 14.2-6.7l25.7-14.8 13.2-7.6v-61.1l-10.8-6.1-25.6-14.8c-8.3-4.7-15.5-8.6-16-8.6-.6 0-9 4.6-18.6 10.2zm34.7 27.7c5.3 2.5 6.7 6.4 6.2 18.5-.4 8.4-.5 8.9-3.7 11.7-3.2 2.9-3.4 2.9-15.2 2.9h-12v14.5l-5.2-.2-6.5-.3c-1 0-1.3-5.5-1.3-23.8 0-13.1.3-24.2.7-24.5.3-.4 7.9-.7 16.7-.7 13.7 0 16.7.3 20.3 1.9z"/>
  <path fill="#79d9d9" d="M174 195.4v7.4l5.8.4c10.3.6 12.1.1 12.8-3.8.8-4.5-.3-10.1-2.2-10.8-.9-.3-4.9-.6-9-.6H174v7.4zM317.4 283.3l-14.6 8.6-3.8 2.3v17.6l.1 17.7 14.5 8.2a90.3 90.3 0 0 0 16.2 8.2c.9 0 8-3.8 15.7-8.3l14-8.2v-35.6l-14.5-8.4c-8-4.6-15-8.4-15.6-8.4-.5 0-5.9 2.9-12 6.3zm14.5 12.6c1 .6 1.2 2.5.9 6.9l-.4 6.1 6.5.3c6.6.3 6.6.3 6.6 3.3s0 3-6.2 3.3l-6.2.3-.3 6.7-.3 6.7-3.2.3c-2.8.3-3.3-.1-3.9-2.3a27 27 0 0 1 0-7l.7-4.5h-6.4c-6.9 0-8.4-1.1-7.2-5.1.5-1.6 1.7-1.9 7.1-1.9h6.5l-.7-6.1c-.5-4.7-.4-6.3.7-7 1.8-1.1 4-1.1 5.8 0z"/>
</svg>
