<svg xmlns="http://www.w3.org/2000/svg" viewBox="0 0 200 144">
  <g fill="#fdfdfd">
    <path d="M69.8 22.6h10.3c8.4 0 17.7 0 24.8 5.5 6 4.6 8 11 9 18.3-2.5 1.1-5 3.3-6.8 5.3-4.2 4.3-7 9.5-8 15.4-.2 1.1-.5 2.3-.4 3.5-7 2.3-15.2 2-22.4 2h-9c.2 2.5 0 5 0 7.6v15.9c0 1 0 2.2.8 3 1.2 1.1 3 1.1 4.5 1.1h3.7v9.8c-3.7-.2-7.5-.1-11.2-.1H46.7v-9.7c1.5 0 4.8.2 6.2 0 1.1-.2 2-.7 2.6-1.6.4-.5.4-1.2.4-1.8.2-3.7 0-7.4 0-11.1V34.2c0-.3-.1-.5-.3-.7-.4-.4-.9-.6-1.4-.7-1.6-.4-5.9 0-7.8 0v-10H54c5.3 0 10.5 0 15.7-.2ZM67.4 63h11c6.5-.1 13.6.2 19-4 3-2.8 4-6.6 4.2-10.5 0-4-.4-8-3.3-11-3.4-3.6-8.6-4.5-13.3-4.6l-17.6-.1v12.8Zm58-14.7a22.4 22.4 0 0 1 10.2 1.4 25.3 25.3 0 0 1 7.7 5 17.9 17.9 0 0 1 2.3 2.5 26.9 26.9 0 0 1 3.4 6 25.7 25.7 0 0 1 1.6 9 19 19 0 0 1-.6 4.6 27.5 27.5 0 0 1-2.5 6.5 25.5 25.5 0 0 1-6 6.9 22.7 22.7 0 0 1-11.6 4.7 18.4 18.4 0 0 1-3.4.2 22.6 22.6 0 0 1-12-3.7 22.5 22.5 0 0 1-8.3-9.3 21 21 0 0 1-2.1-6.5 22.8 22.8 0 0 1 1.6-13.5 21 21 0 0 1 3-4.9 25.8 25.8 0 0 1 5.9-5.3 22.5 22.5 0 0 1 10.8-3.6Zm-1 9.3.1 11.8c-3.7 0-7.3 0-11 .2 0 1.4-.2 3.8.3 5 .7.4 9.3.2 10.7.2v10.5H129.7V74.7h11c-.2-1.8 0-3.6 0-5.4h-11v-12l-1.4.1h-3.8Zm0 0"/>
    <path d="M108.7 93.3c1 0 1.8 1.2 2.7 1.6l-6.6 7a162 162 0 0 1-11.4 10.3l-2.5 1.9a79.9 79.9 0 0 1-16.7 10.8c-4.7 2.1-10 3.4-15 1.4-3-1.1-5.6-3.6-6.9-6.5-.6-1.6-.8-3.3-1-5h3.3c.2 2.5.6 4.8 2.3 6.6 1.9 1.9 4.6 2.7 7.2 2.8 10.5.1 26.7-13.6 34.4-20.7 3.5-3.3 6.8-6.9 10.2-10.2ZM134.8 19h.6c4.2-.3 9 .1 12.3 3.1 2.3 2.1 3.2 4.7 3.4 7.8a41 41 0 0 1-4.2 17c-.3.9-.8 2.5-1.3 3-.7-.6-2-1.3-2.8-1.6a51 51 0 0 0 4.7-14.3c.1-1.3.4-5.4-.4-6.3 0-.5-.2-1-.4-1.3-1-1.9-3.1-3-5.1-3.5-8.4-2.2-21.3 2.3-28.5 6.5l-2.3-2.5c1-.4 1.8-1 2.6-1.4l3.4-1.6a60.5 60.5 0 0 1 18-4.9ZM25.1 0h4.4c.2.3.3.7.3 1a116.4 116.4 0 0 1-.4 10.5c-.5.3-1.4.2-2 .2-2.9 0-5.8.4-7 3.4-1.5 3.5-1.4 9.6-1.4 13.4v13.6c0 7 .4 17.6-2.1 24-1 2.5-2.5 4.4-4.8 5.9 2.9 1.6 4.5 4.6 5.4 7.7C19.2 85.8 19 94 19 100.4v14.2c0 4.2-.1 9.4 1 13.4a5.3 5.3 0 0 0 2.5 3.4c1.6.8 3.4.9 5.2.9.5 0 1-.1 1.6 0 .2 0 .3.2.4.4.2.6.2 8.8 0 10l-.1 1.1-.2.2H25l-2.4-.5c-2.2-.4-4.4-1.3-6-2.8-1.5-1.3-2.4-3-3-4.7-2.2-6.4-2.2-14.9-2.2-21.7V95c-.2-4.3-.2-11.4-3-14.8A6.7 6.7 0 0 0 3 77.7c-.9 0-2.3.2-3-.3v-11c.7-.7 3.6-.3 4.6-.5a6.4 6.4 0 0 0 4.7-3.7c2-4.3 2-12.2 2-17.1V32.4c0-7.3-.4-21.6 3.7-27.5C17.6 1 21 .8 25.1 0Zm145.2 0h4.4l2.8.5c3 .6 5.8 2 7.5 4.6 4 6.2 3.5 20.4 3.5 27.8v15c.1 4.2.1 9.5 1.7 13.5.8 2 2.2 3.8 4.4 4.3l1.7.3c1 0 3-.3 3.5.5v6.7c0 1.2.2 3 0 4.2-.5.4-1.6.3-2.2.3-1.2 0-2.5 0-3.6.6-4.4 1.8-5 8-5.2 12-.4 3.9-.3 7.8-.3 11.6v12.6c0 6.7 0 14.2-2 20.7-.6 2.2-1.6 4.2-3.4 5.7-1.7 1.5-3.9 2.3-6.1 2.7l-2.1.4h-4.6v-1.6c-.1-1.2-.3-9.5 0-10 .3-.3 3.2-.1 3.8-.2 2.1-.1 4.2-.9 5.2-3 1.5-2.7 1.5-8.2 1.6-11.5v-15.9c0-7.3-.5-17.4 2.2-24.1.8-1.8 1.8-3.5 3.3-4.8l1.2-.8V72c-.2-.5-1.2-1-1.6-1.5-2-1.7-3-4.1-3.6-6.6-1.7-6.3-1.4-13.2-1.4-19.7 0-7.3.1-14.6-.3-22a35 35 0 0 0-.6-5c-1-5-3.8-5.6-8.3-5.5-.4 0-1 0-1.4-.2-.6-.6-.2-10-.1-11.5Zm0 0"/>
  </g>
</svg>
